<mxfile host="app.diagrams.net" modified="2021-12-19T11:29:20.557Z" agent="5.0 (Macintosh; Intel Mac OS X 10_15_7) AppleWebKit/605.1.15 (KHTML, like Gecko) Version/15.1 Safari/605.1.15" etag="ZPr4iw4-r5EdxtnENjc8" version="16.0.0" type="github">
  <diagram id="YCTGJR02snR9csBezVZd" name="Page-1">
    <mxGraphModel dx="1185" dy="1994" grid="1" gridSize="10" guides="1" tooltips="1" connect="1" arrows="1" fold="1" page="1" pageScale="1" pageWidth="827" pageHeight="1169" math="0" shadow="0">
      <root>
        <mxCell id="0" />
        <mxCell id="1" parent="0" />
        <mxCell id="GkzYyq8eIFpxLnGMrCXj-1" value="&lt;p style=&quot;margin: 0px ; margin-top: 4px ; text-align: center&quot;&gt;&lt;br&gt;&lt;b&gt;Class&lt;/b&gt;&lt;/p&gt;" style="verticalAlign=top;align=left;overflow=fill;fontSize=12;fontFamily=Helvetica;html=1;" parent="1" vertex="1">
          <mxGeometry x="344" y="-990" width="140" height="60" as="geometry" />
        </mxCell>
        <mxCell id="GkzYyq8eIFpxLnGMrCXj-2" value="&lt;p style=&quot;margin: 0px ; margin-top: 4px ; text-align: center&quot;&gt;&lt;br&gt;&lt;b&gt;Block&lt;/b&gt;&lt;/p&gt;" style="verticalAlign=top;align=left;overflow=fill;fontSize=12;fontFamily=Helvetica;html=1;" parent="1" vertex="1">
          <mxGeometry x="344" y="-870" width="140" height="60" as="geometry" />
        </mxCell>
        <mxCell id="GkzYyq8eIFpxLnGMrCXj-3" value="" style="endArrow=block;endSize=16;endFill=0;rounded=0;entryX=0.5;entryY=1;entryDx=0;entryDy=0;exitX=0.5;exitY=0;exitDx=0;exitDy=0;html=1;" parent="1" source="GkzYyq8eIFpxLnGMrCXj-2" target="GkzYyq8eIFpxLnGMrCXj-1" edge="1">
          <mxGeometry width="160" relative="1" as="geometry">
            <mxPoint x="410" y="-830" as="sourcePoint" />
            <mxPoint x="500" y="-760" as="targetPoint" />
          </mxGeometry>
        </mxCell>
      </root>
    </mxGraphModel>
  </diagram>
</mxfile>
